<svg xmlns="http://www.w3.org/2000/svg" width="37.692" height="32.684" viewBox="0 0 37.692 32.684"><defs><style>.a{fill:#d23bff;}</style></defs><path class="a" d="M45.692,56.435a.608.608,0,0,0-.4-.571l-8.718-3.17V42.539h-.024a.6.6,0,0,0-.377-.734L27.053,38.49a.6.6,0,0,0-.415,0l-9.119,3.315a.609.609,0,0,0-.385.439h-.016V52.693L8.4,55.863a.609.609,0,0,0-.385.439H8V67.08h.015a.607.607,0,0,0,.385.7L17.519,71.1a.6.6,0,0,0,.415,0l8.911-3.24,8.911,3.24a.6.6,0,0,0,.415,0l9.119-3.315a.607.607,0,0,0,.378-.409h.023V56.6S45.691,56.49,45.692,56.435ZM17.119,69.66l-7.9-2.873V57.3l7.9,2.874ZM17.727,59.1l-7.34-2.669,7.292-2.652,7.341,2.67Zm8.511,7.683-7.9,2.873V60.177l7.9-2.874Zm0-11.219-7.9-2.874V43.244l7.9,2.874ZM19.506,42.377l7.34-2.669,7.34,2.669-7.34,2.669Zm15.851.868v9.449l-7.9,2.874V46.118Zm0,26.415-7.9-2.873V57.3l7.9,2.874ZM35.965,59.1l-7.293-2.651,7.341-2.67L43.3,56.435Zm8.511,7.683-7.9,2.873V60.177l7.9-2.874Z" transform="translate(-8 -38.453)"/></svg>