<svg width="47" height="45" fill="none" xmlns="http://www.w3.org/2000/svg"><path d="M30.763 45H16.224L4.487 36.404 0 22.5 4.487 8.596 16.237 0h14.539l11.737 8.596L47 22.5l-4.487 13.904L30.763 45zm-14.017-1.57h13.508l10.93-7.983 4.177-12.934L41.185 9.56 30.254 1.577H16.746L5.816 9.56 1.639 22.5l4.177 12.933 10.93 7.997z" fill="#1AFF31"/><path d="M28.727 38.706H18.273l-8.466-6.194L6.608 22.5l3.232-9.98 8.433-6.226h10.454l8.466 6.193L40.424 22.5l-3.231 9.98-8.466 6.226zm-10.065-1.224h9.675l7.825-5.721 2.987-9.261-2.987-9.26-7.825-5.729h-9.675l-7.824 5.728L7.85 22.5l2.987 9.26 7.824 5.722z" fill="#1AFF31"/><path d="M26.699 32.406h-6.397l-5.175-3.799-1.982-6.12 1.982-6.127 5.175-3.786h6.397l5.174 3.786 1.983 6.127-1.983 6.12-5.174 3.8zm-6.113-.871h5.848l4.725-3.447 1.798-5.588-1.798-5.588-4.725-3.453h-5.848l-4.725 3.453-1.805 5.588 1.805 5.588 4.725 3.447z" fill="#1AFF31"/><path d="M24.663 26.113h-2.326l-1.89-1.378-.72-2.235.72-2.235 1.89-1.378h2.326l1.89 1.378.72 2.235-.72 2.235-1.89 1.378zm-2.16-.52h1.982l1.612-1.184.621-1.909-.608-1.876-1.612-1.184h-1.983l-1.625 1.184-.622 1.91.622 1.909 1.612 1.15z" fill="#1AFF31"/></svg>