<svg xmlns="http://www.w3.org/2000/svg" width="37.071" height="32.081" viewBox="0 0 37.071 32.081"><defs><style>.a{fill:#ff2965;}</style></defs><g transform="translate(0 -34.462)"><g transform="translate(9.73 40.224)"><g transform="translate(0 0)"><path class="a" d="M150.354,115.687a5.61,5.61,0,0,0-7.165-.634,5.6,5.6,0,0,0-7.165,8.555l6.409,6.409a1.069,1.069,0,0,0,1.512,0l6.409-6.409a5.6,5.6,0,0,0,0-7.921Zm-1.512,6.409-5.653,5.653-5.653-5.653a3.462,3.462,0,0,1,4.9-4.9,1.069,1.069,0,0,0,1.512,0,3.462,3.462,0,1,1,4.9,4.9Z" transform="translate(-134.384 -114.049)"/></g></g><g transform="translate(0 34.462)"><path class="a" d="M33.863,34.462H3.208A3.212,3.212,0,0,0,0,37.67V57.631a3.212,3.212,0,0,0,3.208,3.208H13.723l3.957,5.276a1.069,1.069,0,0,0,1.711,0l3.957-5.276H33.863a3.212,3.212,0,0,0,3.208-3.208V37.67A3.212,3.212,0,0,0,33.863,34.462Zm1.069,23.169A1.071,1.071,0,0,1,33.863,58.7H22.813a1.069,1.069,0,0,0-.855.428l-3.422,4.563-3.422-4.563a1.069,1.069,0,0,0-.855-.428H3.208a1.071,1.071,0,0,1-1.069-1.069V37.67A1.07,1.07,0,0,1,3.208,36.6H33.863a1.071,1.071,0,0,1,1.069,1.069Z" transform="translate(0 -34.462)"/></g></g></svg>